<svg width="189" height="189" viewBox="0 0 189 189" fill="none" xmlns="http://www.w3.org/2000/svg">
<rect width="189" height="189" rx="20" fill="#5865F2"/>
<path d="M128.959 63.5232C140.096 80.0131 145.596 98.6133 143.54 120.026C143.531 120.117 143.484 120.2 143.41 120.255C134.977 126.491 126.806 130.276 118.749 132.786C118.687 132.805 118.62 132.804 118.557 132.783C118.495 132.762 118.441 132.722 118.403 132.668C116.542 130.06 114.851 127.31 113.369 124.423C113.284 124.253 113.362 124.048 113.537 123.981C116.223 122.962 118.777 121.741 121.233 120.294C121.427 120.18 121.439 119.901 121.26 119.767C120.739 119.377 120.222 118.967 119.728 118.558C119.636 118.482 119.511 118.467 119.406 118.518C103.458 125.935 85.9867 125.935 69.8495 118.518C69.7447 118.471 69.6202 118.487 69.5302 118.562C69.0372 118.971 68.5195 119.377 68.003 119.767C67.8243 119.901 67.8391 120.18 68.0338 120.294C70.4904 121.713 73.0444 122.962 75.7265 123.986C75.9003 124.053 75.9829 124.253 75.8966 124.423C74.4471 127.314 72.7559 130.064 70.8602 132.672C70.7776 132.777 70.642 132.826 70.5138 132.786C62.4957 130.276 54.3248 126.491 45.8913 120.255C45.821 120.2 45.7705 120.113 45.7631 120.023C44.0448 101.501 47.5467 82.7465 60.33 63.5195C60.3609 63.4686 60.4077 63.4289 60.4619 63.4053C66.7519 60.4981 73.4906 58.3593 80.5337 57.1378C80.6619 57.1179 80.7901 57.1775 80.8566 57.2917C81.7269 58.8434 82.7216 60.8333 83.3946 62.4594C90.8186 61.3174 98.3584 61.3174 105.938 62.4594C106.611 60.868 107.571 58.8434 108.437 57.2917C108.468 57.2351 108.516 57.1897 108.574 57.162C108.632 57.1344 108.697 57.1259 108.76 57.1378C115.807 58.363 122.546 60.5018 128.831 63.4053C128.886 63.4289 128.932 63.4686 128.959 63.5232ZM87.1688 98.7399C87.2465 93.2644 83.2824 88.7335 78.3064 88.7335C73.371 88.7335 69.4452 93.2246 69.4452 98.7399C69.4452 104.254 73.4487 108.745 78.3064 108.745C83.243 108.745 87.1688 104.254 87.1688 98.7399ZM119.934 98.7399C120.012 93.2644 116.048 88.7335 111.073 88.7335C106.136 88.7335 102.21 93.2246 102.21 98.7399C102.21 104.254 106.214 108.745 111.073 108.745C116.048 108.745 119.934 104.254 119.934 98.7399Z" fill="white"/>
</svg>
