<svg width="189" height="189" viewBox="0 0 189 189" fill="none" xmlns="http://www.w3.org/2000/svg">
<rect width="189" height="189" rx="20" fill="#1B1F23"/>
<path fill-rule="evenodd" clip-rule="evenodd" d="M94.4047 42.8892C65.0554 42.8892 41.2837 66.3157 41.2837 95.239C41.2837 118.404 56.4896 137.97 77.6052 144.906C80.2612 145.364 81.2573 143.794 81.2573 142.419C81.2573 141.176 81.1909 137.053 81.1909 132.669C67.8442 135.09 64.3913 129.463 63.3289 126.518C62.7313 125.013 60.1417 120.367 57.884 119.124C56.0248 118.142 53.3687 115.721 57.8176 115.655C62.0009 115.59 64.989 119.451 65.985 121.021C70.7659 128.939 78.402 126.714 81.4565 125.34C81.9213 121.937 83.3157 119.647 84.8429 118.338C73.0235 117.03 60.6729 112.514 60.6729 92.4907C60.6729 86.7976 62.7313 82.0861 66.1178 78.4216C65.5866 77.1129 63.7273 71.747 66.649 64.5489C66.649 64.5489 71.0979 63.1747 81.2573 69.9148C85.507 68.7369 90.0222 68.148 94.5375 68.148C99.0528 68.148 103.568 68.7369 107.818 69.9148C117.977 63.1093 122.426 64.5489 122.426 64.5489C125.348 71.747 123.488 77.1129 122.957 78.4216C126.344 82.0861 128.402 86.7322 128.402 92.4907C128.402 112.58 115.985 117.03 104.166 118.338C106.091 119.974 107.751 123.115 107.751 128.023C107.751 135.025 107.685 140.653 107.685 142.419C107.685 143.794 108.681 145.429 111.337 144.906C132.32 137.97 147.526 118.338 147.526 95.239C147.526 66.3157 123.754 42.8892 94.4047 42.8892Z" fill="white"/>
</svg>
