<?xml version="1.0" standalone="no"?>
<!DOCTYPE svg PUBLIC "-//W3C//DTD SVG 20010904//EN"
 "http://www.w3.org/TR/2001/REC-SVG-20010904/DTD/svg10.dtd">
<svg version="1.0" xmlns="http://www.w3.org/2000/svg"
 width="502.000000pt" height="211.000000pt" viewBox="0 0 502.000000 211.000000"
 preserveAspectRatio="xMidYMid meet">

<g transform="translate(0.000000,211.000000) scale(0.100000,-0.100000)"
fill="#000000" stroke="none">
<path d="M2830 2090 c-417 -16 -508 -32 -603 -104 -87 -66 -144 -194 -166
-372 -44 -360 -30 -1050 25 -1244 25 -87 71 -175 109 -209 134 -118 301 -135
1325 -135 652 -1 1005 11 1129 35 82 17 136 43 192 96 85 79 127 189 151 398
18 150 18 860 0 1010 -31 262 -98 392 -237 460 -65 32 -125 42 -330 55 -223
14 -1308 21 -1595 10z m80 -435 l0 -95 -110 0 -110 0 0 -575 0 -575 -100 0
-100 0 0 575 0 575 -105 0 -105 0 0 95 0 95 315 0 315 0 0 -95z m830 -117 l0
-212 33 31 c103 101 230 93 285 -18 31 -63 42 -173 42 -434 0 -272 -10 -372
-44 -430 -57 -96 -173 -98 -279 -6 l-36 32 -3 -43 -3 -43 -90 0 -90 0 -3 668
-2 667 95 0 95 0 0 -212z m878 -140 c107 -55 144 -149 146 -368 l1 -145 -178
-3 -179 -2 4 -136 c3 -129 4 -137 27 -155 31 -26 83 -25 107 2 14 15 20 41 24
98 l5 76 95 0 95 0 -3 -75 c-4 -104 -25 -161 -77 -214 -67 -70 -174 -93 -279
-62 -95 29 -159 106 -183 220 -16 75 -17 454 -2 546 19 118 86 204 187 237 55
19 154 10 210 -19z m-1546 -405 l3 -418 30 -3 c24 -2 39 5 68 34 l37 37 0 384
0 383 100 0 100 0 0 -500 0 -501 -97 3 -98 3 -3 48 -3 48 -45 -41 c-99 -92
-207 -94 -260 -6 -18 29 -19 61 -22 489 l-3 457 96 0 95 0 2 -417z"/>
<path d="M3773 1240 l-33 -20 0 -304 0 -305 26 -20 c26 -21 79 -28 100 -13 30
20 34 55 34 337 0 282 -4 317 -34 337 -20 14 -60 8 -93 -12z"/>
<path d="M4430 1240 c-17 -17 -20 -33 -20 -110 l0 -90 80 0 80 0 0 84 c0 69
-4 88 -21 110 -26 33 -88 37 -119 6z"/>
<path d="M22 1738 c3 -13 57 -183 119 -378 l113 -355 6 -295 5 -295 98 -3 97
-3 0 274 0 273 120 384 c66 212 123 393 126 403 5 15 -4 17 -100 17 -91 0
-105 -2 -110 -17 -2 -10 -33 -125 -67 -255 -34 -131 -65 -236 -67 -233 -3 3
-35 116 -71 252 l-66 248 -104 3 c-103 3 -103 3 -99 -20z"/>
<path d="M846 1416 c-90 -33 -139 -96 -162 -206 -23 -110 -16 -573 10 -643 41
-108 150 -174 272 -164 102 8 173 58 216 152 22 48 23 63 26 320 4 275 -3 357
-35 420 -22 44 -62 84 -108 107 -52 27 -165 34 -219 14z m145 -175 l24 -19 3
-299 c3 -292 2 -300 -18 -326 -28 -35 -87 -38 -116 -6 -18 19 -19 42 -22 303
-2 154 0 291 3 303 14 57 81 80 126 44z"/>
<path d="M1352 968 c3 -503 4 -507 70 -548 64 -39 136 -21 218 56 l50 47 0
-57 0 -57 93 3 92 3 3 503 2 502 -95 0 -95 0 0 -385 0 -384 -38 -41 c-42 -43
-94 -55 -106 -24 -3 9 -6 200 -6 425 l0 409 -95 0 -96 0 3 -452z"/>
</g>
</svg>
